<?xml version="1.0" encoding="UTF-8" standalone="no" ?>
<!DOCTYPE svg PUBLIC "-//W3C//DTD SVG 1.1//EN" "http://www.w3.org/Graphics/SVG/1.1/DTD/svg11.dtd">
<svg xmlns="http://www.w3.org/2000/svg" xmlns:xlink="http://www.w3.org/1999/xlink" version="1.1" width="1080" height="1080" viewBox="0 0 1080 1080" xml:space="preserve">
<desc>Created with Fabric.js 5.2.4</desc>
<defs>
</defs>
<rect x="0" y="0" width="100%" height="100%" fill="transparent"></rect>
<g transform="matrix(1 0 0 1 540 540)" id="8204a71e-2b1b-41cb-9de4-2eebdfc6d6ef"  >
<rect style="stroke: none; stroke-width: 1; stroke-dasharray: none; stroke-linecap: butt; stroke-dashoffset: 0; stroke-linejoin: miter; stroke-miterlimit: 4; fill: rgb(255,255,255); fill-rule: nonzero; opacity: 1; visibility: hidden;" vector-effect="non-scaling-stroke"  x="-540" y="-540" rx="0" ry="0" width="1080" height="1080" />
</g>
<g transform="matrix(1 0 0 1 540 540)" id="4595d41e-bf8f-4473-8f5c-73b63d9125ef"  >
</g>
<g transform="matrix(1 0 0 1 540 540)"  >
<g style="" vector-effect="non-scaling-stroke"   >
		<g transform="matrix(1 0 0 1 0 19.12)"  >
<path style="stroke: none; stroke-width: 1; stroke-dasharray: none; stroke-linecap: butt; stroke-dashoffset: 0; stroke-linejoin: miter; stroke-miterlimit: 4; fill: rgb(156,104,29); fill-rule: nonzero; opacity: 1;" vector-effect="non-scaling-stroke"  transform=" translate(-20.58, -41.16)" d="M 2.512 38.432 C 3.11467 38.432 3.58667 38.5653 3.928 38.832 C 4.27467 39.0987 4.448 39.4773 4.448 39.968 L 4.448 40.064 L 3.664 40.064 L 3.664 39.944 C 3.664 39.688 3.56 39.4907 3.352 39.352 C 3.144 39.2133 2.86933 39.144 2.528 39.144 C 2.14933 39.144 1.85333 39.208 1.64 39.336 C 1.432 39.4587 1.328 39.6373 1.328 39.872 C 1.328 40.048 1.38667 40.192 1.504 40.304 C 1.62667 40.416 1.776 40.504 1.952 40.568 C 2.13333 40.632 2.38133 40.704 2.696 40.784 C 3.10133 40.8907 3.42933 40.9947 3.68 41.096 C 3.93067 41.1973 4.144 41.3493 4.32 41.552 C 4.50133 41.7547 4.592 42.024 4.592 42.36 C 4.592 42.9573 4.408 43.3947 4.04 43.672 C 3.67733 43.944 3.16533 44.08 2.504 44.08 C 1.84267 44.08 1.328 43.9413 0.96 43.664 C 0.597333 43.3813 0.416 42.9733 0.416 42.44 L 0.424 42.28 L 1.208 42.28 L 1.2 42.448 C 1.2 42.7573 1.31467 42.9893 1.544 43.144 C 1.77867 43.2933 2.10133 43.368 2.512 43.368 C 2.912 43.368 3.22667 43.296 3.456 43.152 C 3.69067 43.0027 3.808 42.8 3.808 42.544 C 3.808 42.3413 3.744 42.1787 3.616 42.056 C 3.49333 41.928 3.336 41.8293 3.144 41.76 C 2.95733 41.6907 2.70133 41.6133 2.376 41.528 C 1.976 41.4213 1.656 41.32 1.416 41.224 C 1.176 41.128 0.970667 40.9813 0.8 40.784 C 0.629333 40.5813 0.544 40.3173 0.544 39.992 C 0.544 39.464 0.722667 39.072 1.08 38.816 C 1.43733 38.56 1.91467 38.432 2.512 38.432 Z M 6.43163 40.424 C 6.76763 40.0293 7.18896 39.832 7.69563 39.832 C 8.14363 39.832 8.49563 39.952 8.75163 40.192 C 9.00763 40.432 9.13563 40.784 9.13563 41.248 L 9.13563 44 L 8.38363 44 L 8.38363 41.384 C 8.38363 40.7493 8.09563 40.432 7.51963 40.432 C 7.32763 40.432 7.14896 40.4827 6.98363 40.584 C 6.81829 40.6853 6.68496 40.824 6.58363 41 C 6.48229 41.1707 6.43163 41.36 6.43163 41.568 L 6.43163 44 L 5.67963 44 L 5.67963 38.24 L 6.43163 38.24 L 6.43163 40.424 Z M 12.0538 39.832 C 12.6245 39.832 13.0805 40.008 13.4218 40.36 C 13.7631 40.712 13.9338 41.1947 13.9338 41.808 L 13.9338 42.104 C 13.9338 42.7173 13.7658 43.2 13.4298 43.552 C 13.0938 43.904 12.6351 44.08 12.0538 44.08 C 11.4725 44.08 11.0138 43.904 10.6778 43.552 C 10.3418 43.2 10.1738 42.7173 10.1738 42.104 L 10.1738 41.808 C 10.1738 41.1947 10.3445 40.712 10.6858 40.36 C 11.0271 40.008 11.4831 39.832 12.0538 39.832 Z M 12.0538 40.432 C 11.6965 40.432 11.4191 40.5547 11.2218 40.8 C 11.0245 41.0453 10.9258 41.4053 10.9258 41.88 L 10.9258 42.032 C 10.9258 42.496 11.0218 42.8533 11.2138 43.104 C 11.4111 43.3547 11.6911 43.48 12.0538 43.48 C 12.4058 43.48 12.6805 43.3573 12.8778 43.112 C 13.0805 42.8613 13.1818 42.5013 13.1818 42.032 L 13.1818 41.88 C 13.1818 41.416 13.0831 41.0587 12.8858 40.808 C 12.6938 40.5573 12.4165 40.432 12.0538 40.432 Z M 16.8556 39.832 C 17.2342 39.832 17.5302 39.9547 17.7436 40.2 C 17.9569 40.44 18.0636 40.744 18.0636 41.112 L 18.0396 41.416 L 17.3756 41.416 L 17.3756 41.24 C 17.3756 41.08 17.3356 40.9387 17.2556 40.816 C 17.1756 40.6933 17.0742 40.6 16.9516 40.536 C 16.8289 40.4667 16.7062 40.432 16.5836 40.432 C 16.3276 40.432 16.1276 40.5333 15.9836 40.736 C 15.8396 40.9387 15.7676 41.2133 15.7676 41.56 L 15.7676 44 L 15.0156 44 L 15.0156 39.912 L 15.5516 39.912 L 15.6636 40.52 C 15.6956 40.4133 15.7676 40.3067 15.8796 40.2 C 15.9916 40.0933 16.1302 40.0053 16.2956 39.936 C 16.4662 39.8667 16.6529 39.832 16.8556 39.832 Z M 19.8174 39.912 L 20.7694 39.912 L 20.7694 40.512 L 19.8174 40.512 L 19.8174 42.952 C 19.8174 43.144 19.8548 43.2827 19.9294 43.368 C 20.0041 43.4533 20.1188 43.496 20.2734 43.496 C 20.4121 43.496 20.5774 43.456 20.7694 43.376 L 20.7694 43.936 C 20.5774 44.032 20.3294 44.08 20.0254 44.08 C 19.7108 44.08 19.4708 43.9867 19.3054 43.8 C 19.1454 43.6133 19.0654 43.3173 19.0654 42.912 L 19.0654 40.512 L 18.6174 40.512 L 18.6174 39.912 L 19.0894 39.912 L 19.3454 38.608 L 19.8174 38.608 L 19.8174 39.912 Z M 22.4871 38.24 L 22.4871 44 L 21.7351 44 L 21.7351 38.24 L 22.4871 38.24 Z M 24.6117 38.24 L 24.6117 38.936 L 23.8277 38.936 L 23.8277 38.24 L 24.6117 38.24 Z M 24.5957 39.912 L 24.5957 44 L 23.8437 44 L 23.8437 39.912 L 24.5957 39.912 Z M 27.4818 39.832 C 27.7858 39.832 28.0551 39.88 28.2898 39.976 C 28.5298 40.072 28.7138 40.2053 28.8418 40.376 C 28.9751 40.5467 29.0418 40.736 29.0418 40.944 L 29.0338 41.088 L 28.2898 41.088 L 28.2898 41.016 C 28.2898 40.6267 27.9885 40.432 27.3858 40.432 C 26.7885 40.432 26.4898 40.6107 26.4898 40.968 C 26.4898 41.1333 26.5751 41.256 26.7458 41.336 C 26.9165 41.4107 27.1778 41.4827 27.5298 41.552 C 27.8658 41.6213 28.1405 41.6933 28.3538 41.768 C 28.5725 41.8427 28.7565 41.96 28.9058 42.12 C 29.0605 42.28 29.1378 42.496 29.1378 42.768 C 29.1378 43.2053 28.9885 43.5333 28.6898 43.752 C 28.3911 43.9707 27.9618 44.08 27.4018 44.08 L 27.2818 44.08 C 26.9458 44.08 26.6525 44.0293 26.4018 43.928 C 26.1511 43.8213 25.9565 43.68 25.8178 43.504 C 25.6845 43.3227 25.6205 43.12 25.6258 42.896 L 25.6258 42.72 L 26.3698 42.72 L 26.3698 42.8 C 26.3698 43.2533 26.7511 43.48 27.5138 43.48 C 27.7378 43.48 27.9378 43.4293 28.1138 43.328 C 28.2951 43.2267 28.3858 43.088 28.3858 42.912 C 28.3858 42.7627 28.3351 42.6453 28.2338 42.56 C 28.1378 42.4747 28.0178 42.4107 27.8738 42.368 C 27.7298 42.3253 27.5298 42.2827 27.2738 42.24 C 26.9431 42.176 26.6765 42.112 26.4738 42.048 C 26.2711 41.9787 26.0978 41.864 25.9538 41.704 C 25.8098 41.544 25.7378 41.3253 25.7378 41.048 C 25.7378 40.6693 25.8871 40.3733 26.1858 40.16 C 26.4845 39.9413 26.8925 39.832 27.4098 39.832 L 27.4818 39.832 Z M 31.0753 39.912 L 32.0273 39.912 L 32.0273 40.512 L 31.0753 40.512 L 31.0753 42.952 C 31.0753 43.144 31.1126 43.2827 31.1873 43.368 C 31.2619 43.4533 31.3766 43.496 31.5312 43.496 C 31.6699 43.496 31.8353 43.456 32.0273 43.376 L 32.0273 43.936 C 31.8353 44.032 31.5873 44.08 31.2833 44.08 C 30.9686 44.08 30.7286 43.9867 30.5633 43.8 C 30.4033 43.6133 30.3233 43.3173 30.3233 42.912 L 30.3233 40.512 L 29.8753 40.512 L 29.8753 39.912 L 30.3473 39.912 L 30.6033 38.608 L 31.0753 38.608 L 31.0753 39.912 Z M 34.6009 39.832 C 34.9369 39.832 35.2329 39.904 35.4889 40.048 C 35.7502 40.1867 35.9529 40.3867 36.0969 40.648 C 36.2409 40.9093 36.3129 41.2133 36.3129 41.56 L 36.3129 42.128 L 33.4569 42.128 C 33.4675 42.56 33.5689 42.8933 33.7609 43.128 C 33.9529 43.3627 34.2382 43.48 34.6169 43.48 C 34.9529 43.48 35.2009 43.3813 35.3609 43.184 C 35.5209 42.9867 35.6009 42.752 35.6009 42.48 L 36.3129 42.48 C 36.3129 42.8 36.2382 43.08 36.0889 43.32 C 35.9449 43.56 35.7422 43.7467 35.4809 43.88 C 35.2249 44.0133 34.9315 44.08 34.6009 44.08 L 34.5689 44.08 C 33.9929 44.08 33.5369 43.896 33.2009 43.528 C 32.8702 43.1547 32.7049 42.6587 32.7049 42.04 L 32.7049 41.88 C 32.7049 41.4747 32.7795 41.1173 32.9289 40.808 C 33.0782 40.4987 33.2915 40.2587 33.5689 40.088 C 33.8462 39.9173 34.1715 39.832 34.5449 39.832 L 34.6009 39.832 Z M 34.5609 40.432 C 34.2569 40.432 34.0089 40.5253 33.8169 40.712 C 33.6302 40.8987 33.5155 41.176 33.4729 41.544 L 35.5689 41.544 L 35.5689 41.448 C 35.5689 41.144 35.4755 40.8987 35.2889 40.712 C 35.1075 40.5253 34.8649 40.432 34.5609 40.432 Z M 40.7422 44 L 40.1822 44 C 40.1449 43.8293 40.1102 43.6427 40.0782 43.44 C 39.7742 43.8667 39.3529 44.08 38.8142 44.08 C 38.3022 44.08 37.8969 43.8907 37.5982 43.512 C 37.3049 43.1333 37.1582 42.6133 37.1582 41.952 L 37.1582 41.864 C 37.1582 41.24 37.3022 40.7467 37.5902 40.384 C 37.8835 40.016 38.2915 39.832 38.8142 39.832 C 39.3209 39.832 39.7129 40.032 39.9902 40.432 L 39.9902 38.24 L 40.7422 38.24 L 40.7422 44 Z M 38.9502 40.432 C 38.5929 40.432 38.3289 40.5573 38.1582 40.808 C 37.9929 41.0533 37.9102 41.4373 37.9102 41.96 C 37.9102 42.4827 37.9955 42.8667 38.1662 43.112 C 38.3369 43.3573 38.5982 43.48 38.9502 43.48 C 39.6489 43.48 39.9982 42.9733 39.9982 41.96 C 39.9982 41.4373 39.9102 41.0533 39.7342 40.808 C 39.5582 40.5573 39.2969 40.432 38.9502 40.432 Z" stroke-linecap="round" />
</g>
		<g transform="matrix(1 0 0 1 -0.08 -18.54)"  >
<path style="stroke: none; stroke-width: 1; stroke-dasharray: none; stroke-linecap: butt; stroke-dashoffset: 0; stroke-linejoin: miter; stroke-miterlimit: 4; fill: rgb(156,104,29); fill-rule: evenodd; opacity: 1;" vector-effect="non-scaling-stroke"  transform=" translate(-20.5, -3.5)" d="M 15.0625 2.625 C 15.0625 1.92881 15.3489 1.26113 15.8588 0.768845 C 16.3687 0.276562 17.0602 0 17.7812 0 L 23.2188 0 C 23.9398 0 24.6313 0.276562 25.1412 0.768845 C 25.6511 1.26113 25.9375 1.92881 25.9375 2.625 L 25.9375 4.375 C 25.9375 5.07119 25.6511 5.73887 25.1412 6.23116 C 24.6313 6.72344 23.9398 7 23.2188 7 L 17.7812 7 C 17.0602 7 16.3687 6.72344 15.8588 6.23116 C 15.3489 5.73887 15.0625 5.07119 15.0625 4.375 L 15.0625 2.625 Z M 24.125 2.625 C 24.125 2.39294 24.0295 2.17038 23.8596 2.00628 C 23.6896 1.84219 23.4591 1.75 23.2188 1.75 L 17.7812 1.75 C 17.5409 1.75 17.3104 1.84219 17.1404 2.00628 C 16.9705 2.17038 16.875 2.39294 16.875 2.625 L 16.875 4.375 C 16.875 4.60706 16.9705 4.82962 17.1404 4.99372 C 17.3104 5.15781 17.5409 5.25 17.7812 5.25 L 23.2188 5.25 C 23.4591 5.25 23.6896 5.15781 23.8596 4.99372 C 24.0295 4.82962 24.125 4.60706 24.125 4.375 L 24.125 2.625 Z" stroke-linecap="round" />
</g>
		<g transform="matrix(1 0 0 1 -0.08 -6.73)"  >
<path style="stroke: none; stroke-width: 1; stroke-dasharray: none; stroke-linecap: butt; stroke-dashoffset: 0; stroke-linejoin: miter; stroke-miterlimit: 4; fill: rgb(156,104,29); fill-rule: nonzero; opacity: 1;" vector-effect="non-scaling-stroke"  transform=" translate(-20.5, -15.31)" d="M 11.4375 2.625 L 13.25 2.625 L 13.25 4.375 L 11.4375 4.375 C 10.9568 4.375 10.4958 4.55937 10.1559 4.88756 C 9.81596 5.21575 9.625 5.66087 9.625 6.125 L 9.625 24.5 C 9.625 24.9641 9.81596 25.4092 10.1559 25.7374 C 10.4958 26.0656 10.9568 26.25 11.4375 26.25 L 29.5625 26.25 C 30.0432 26.25 30.5042 26.0656 30.8441 25.7374 C 31.184 25.4092 31.375 24.9641 31.375 24.5 L 31.375 6.125 C 31.375 5.66087 31.184 5.21575 30.8441 4.88756 C 30.5042 4.55937 30.0432 4.375 29.5625 4.375 L 27.75 4.375 L 27.75 2.625 L 29.5625 2.625 C 30.5239 2.625 31.4459 2.99375 32.1258 3.65013 C 32.8056 4.3065 33.1875 5.19674 33.1875 6.125 L 33.1875 24.5 C 33.1875 25.4283 32.8056 26.3185 32.1258 26.9749 C 31.4459 27.6313 30.5239 28 29.5625 28 L 11.4375 28 C 10.4761 28 9.55406 27.6313 8.87424 26.9749 C 8.19442 26.3185 7.8125 25.4283 7.8125 24.5 L 7.8125 6.125 C 7.8125 5.19674 8.19442 4.3065 8.87424 3.65013 C 9.55406 2.99375 10.4761 2.625 11.4375 2.625 Z" stroke-linecap="round" />
</g>
		<g transform="matrix(1 0 0 1 -0.08 -5.85)"  >
<path style="stroke: none; stroke-width: 1; stroke-dasharray: none; stroke-linecap: butt; stroke-dashoffset: 0; stroke-linejoin: miter; stroke-miterlimit: 4; fill: rgb(156,104,29); fill-rule: nonzero; opacity: 1;" vector-effect="non-scaling-stroke"  transform=" translate(-20.5, -16.19)" d="M 20.5 12.2184 C 23.516 9.29067 31.0578 14.4129 20.5 20.9999 C 9.94218 14.4129 17.484 9.29242 20.5 12.2184 Z" stroke-linecap="round" />
</g>
</g>
</g>
<g transform="matrix(1 0 0 1 540 540)"  >
<g style="" vector-effect="non-scaling-stroke"   >
		<g transform="matrix(1 0 0 1 0 0)"  >
<rect style="stroke: none; stroke-width: 1; stroke-dasharray: none; stroke-linecap: butt; stroke-dashoffset: 0; stroke-linejoin: miter; stroke-miterlimit: 4; fill: rgb(255,255,255); fill-rule: nonzero; opacity: 1; visibility: hidden;" vector-effect="non-scaling-stroke"  x="-540" y="-540" rx="0" ry="0" width="1080" height="1080" />
</g>
		<g transform="matrix(1 0 0 1 0 19.12)"  >
<path style="stroke: none; stroke-width: 1; stroke-dasharray: none; stroke-linecap: butt; stroke-dashoffset: 0; stroke-linejoin: miter; stroke-miterlimit: 4; fill: rgb(156,104,29); fill-rule: nonzero; opacity: 1;" vector-effect="non-scaling-stroke"  transform=" translate(-20.58, -41.16)" d="M 2.512 38.432 C 3.11467 38.432 3.58667 38.5653 3.928 38.832 C 4.27467 39.0987 4.448 39.4773 4.448 39.968 L 4.448 40.064 L 3.664 40.064 L 3.664 39.944 C 3.664 39.688 3.56 39.4907 3.352 39.352 C 3.144 39.2133 2.86933 39.144 2.528 39.144 C 2.14933 39.144 1.85333 39.208 1.64 39.336 C 1.432 39.4587 1.328 39.6373 1.328 39.872 C 1.328 40.048 1.38667 40.192 1.504 40.304 C 1.62667 40.416 1.776 40.504 1.952 40.568 C 2.13333 40.632 2.38133 40.704 2.696 40.784 C 3.10133 40.8907 3.42933 40.9947 3.68 41.096 C 3.93067 41.1973 4.144 41.3493 4.32 41.552 C 4.50133 41.7547 4.592 42.024 4.592 42.36 C 4.592 42.9573 4.408 43.3947 4.04 43.672 C 3.67733 43.944 3.16533 44.08 2.504 44.08 C 1.84267 44.08 1.328 43.9413 0.96 43.664 C 0.597333 43.3813 0.416 42.9733 0.416 42.44 L 0.424 42.28 L 1.208 42.28 L 1.2 42.448 C 1.2 42.7573 1.31467 42.9893 1.544 43.144 C 1.77867 43.2933 2.10133 43.368 2.512 43.368 C 2.912 43.368 3.22667 43.296 3.456 43.152 C 3.69067 43.0027 3.808 42.8 3.808 42.544 C 3.808 42.3413 3.744 42.1787 3.616 42.056 C 3.49333 41.928 3.336 41.8293 3.144 41.76 C 2.95733 41.6907 2.70133 41.6133 2.376 41.528 C 1.976 41.4213 1.656 41.32 1.416 41.224 C 1.176 41.128 0.970667 40.9813 0.8 40.784 C 0.629333 40.5813 0.544 40.3173 0.544 39.992 C 0.544 39.464 0.722667 39.072 1.08 38.816 C 1.43733 38.56 1.91467 38.432 2.512 38.432 Z M 6.43163 40.424 C 6.76763 40.0293 7.18896 39.832 7.69563 39.832 C 8.14363 39.832 8.49563 39.952 8.75163 40.192 C 9.00763 40.432 9.13563 40.784 9.13563 41.248 L 9.13563 44 L 8.38363 44 L 8.38363 41.384 C 8.38363 40.7493 8.09563 40.432 7.51963 40.432 C 7.32763 40.432 7.14896 40.4827 6.98363 40.584 C 6.81829 40.6853 6.68496 40.824 6.58363 41 C 6.48229 41.1707 6.43163 41.36 6.43163 41.568 L 6.43163 44 L 5.67963 44 L 5.67963 38.24 L 6.43163 38.24 L 6.43163 40.424 Z M 12.0538 39.832 C 12.6245 39.832 13.0805 40.008 13.4218 40.36 C 13.7631 40.712 13.9338 41.1947 13.9338 41.808 L 13.9338 42.104 C 13.9338 42.7173 13.7658 43.2 13.4298 43.552 C 13.0938 43.904 12.6351 44.08 12.0538 44.08 C 11.4725 44.08 11.0138 43.904 10.6778 43.552 C 10.3418 43.2 10.1738 42.7173 10.1738 42.104 L 10.1738 41.808 C 10.1738 41.1947 10.3445 40.712 10.6858 40.36 C 11.0271 40.008 11.4831 39.832 12.0538 39.832 Z M 12.0538 40.432 C 11.6965 40.432 11.4191 40.5547 11.2218 40.8 C 11.0245 41.0453 10.9258 41.4053 10.9258 41.88 L 10.9258 42.032 C 10.9258 42.496 11.0218 42.8533 11.2138 43.104 C 11.4111 43.3547 11.6911 43.48 12.0538 43.48 C 12.4058 43.48 12.6805 43.3573 12.8778 43.112 C 13.0805 42.8613 13.1818 42.5013 13.1818 42.032 L 13.1818 41.88 C 13.1818 41.416 13.0831 41.0587 12.8858 40.808 C 12.6938 40.5573 12.4165 40.432 12.0538 40.432 Z M 16.8556 39.832 C 17.2342 39.832 17.5302 39.9547 17.7436 40.2 C 17.9569 40.44 18.0636 40.744 18.0636 41.112 L 18.0396 41.416 L 17.3756 41.416 L 17.3756 41.24 C 17.3756 41.08 17.3356 40.9387 17.2556 40.816 C 17.1756 40.6933 17.0742 40.6 16.9516 40.536 C 16.8289 40.4667 16.7062 40.432 16.5836 40.432 C 16.3276 40.432 16.1276 40.5333 15.9836 40.736 C 15.8396 40.9387 15.7676 41.2133 15.7676 41.56 L 15.7676 44 L 15.0156 44 L 15.0156 39.912 L 15.5516 39.912 L 15.6636 40.52 C 15.6956 40.4133 15.7676 40.3067 15.8796 40.2 C 15.9916 40.0933 16.1302 40.0053 16.2956 39.936 C 16.4662 39.8667 16.6529 39.832 16.8556 39.832 Z M 19.8174 39.912 L 20.7694 39.912 L 20.7694 40.512 L 19.8174 40.512 L 19.8174 42.952 C 19.8174 43.144 19.8548 43.2827 19.9294 43.368 C 20.0041 43.4533 20.1188 43.496 20.2734 43.496 C 20.4121 43.496 20.5774 43.456 20.7694 43.376 L 20.7694 43.936 C 20.5774 44.032 20.3294 44.08 20.0254 44.08 C 19.7108 44.08 19.4708 43.9867 19.3054 43.8 C 19.1454 43.6133 19.0654 43.3173 19.0654 42.912 L 19.0654 40.512 L 18.6174 40.512 L 18.6174 39.912 L 19.0894 39.912 L 19.3454 38.608 L 19.8174 38.608 L 19.8174 39.912 Z M 22.4871 38.24 L 22.4871 44 L 21.7351 44 L 21.7351 38.24 L 22.4871 38.24 Z M 24.6117 38.24 L 24.6117 38.936 L 23.8277 38.936 L 23.8277 38.24 L 24.6117 38.24 Z M 24.5957 39.912 L 24.5957 44 L 23.8437 44 L 23.8437 39.912 L 24.5957 39.912 Z M 27.4818 39.832 C 27.7858 39.832 28.0551 39.88 28.2898 39.976 C 28.5298 40.072 28.7138 40.2053 28.8418 40.376 C 28.9751 40.5467 29.0418 40.736 29.0418 40.944 L 29.0338 41.088 L 28.2898 41.088 L 28.2898 41.016 C 28.2898 40.6267 27.9885 40.432 27.3858 40.432 C 26.7885 40.432 26.4898 40.6107 26.4898 40.968 C 26.4898 41.1333 26.5751 41.256 26.7458 41.336 C 26.9165 41.4107 27.1778 41.4827 27.5298 41.552 C 27.8658 41.6213 28.1405 41.6933 28.3538 41.768 C 28.5725 41.8427 28.7565 41.96 28.9058 42.12 C 29.0605 42.28 29.1378 42.496 29.1378 42.768 C 29.1378 43.2053 28.9885 43.5333 28.6898 43.752 C 28.3911 43.9707 27.9618 44.08 27.4018 44.08 L 27.2818 44.08 C 26.9458 44.08 26.6525 44.0293 26.4018 43.928 C 26.1511 43.8213 25.9565 43.68 25.8178 43.504 C 25.6845 43.3227 25.6205 43.12 25.6258 42.896 L 25.6258 42.72 L 26.3698 42.72 L 26.3698 42.8 C 26.3698 43.2533 26.7511 43.48 27.5138 43.48 C 27.7378 43.48 27.9378 43.4293 28.1138 43.328 C 28.2951 43.2267 28.3858 43.088 28.3858 42.912 C 28.3858 42.7627 28.3351 42.6453 28.2338 42.56 C 28.1378 42.4747 28.0178 42.4107 27.8738 42.368 C 27.7298 42.3253 27.5298 42.2827 27.2738 42.24 C 26.9431 42.176 26.6765 42.112 26.4738 42.048 C 26.2711 41.9787 26.0978 41.864 25.9538 41.704 C 25.8098 41.544 25.7378 41.3253 25.7378 41.048 C 25.7378 40.6693 25.8871 40.3733 26.1858 40.16 C 26.4845 39.9413 26.8925 39.832 27.4098 39.832 L 27.4818 39.832 Z M 31.0753 39.912 L 32.0273 39.912 L 32.0273 40.512 L 31.0753 40.512 L 31.0753 42.952 C 31.0753 43.144 31.1126 43.2827 31.1873 43.368 C 31.2619 43.4533 31.3766 43.496 31.5312 43.496 C 31.6699 43.496 31.8353 43.456 32.0273 43.376 L 32.0273 43.936 C 31.8353 44.032 31.5873 44.08 31.2833 44.08 C 30.9686 44.08 30.7286 43.9867 30.5633 43.8 C 30.4033 43.6133 30.3233 43.3173 30.3233 42.912 L 30.3233 40.512 L 29.8753 40.512 L 29.8753 39.912 L 30.3473 39.912 L 30.6033 38.608 L 31.0753 38.608 L 31.0753 39.912 Z M 34.6009 39.832 C 34.9369 39.832 35.2329 39.904 35.4889 40.048 C 35.7502 40.1867 35.9529 40.3867 36.0969 40.648 C 36.2409 40.9093 36.3129 41.2133 36.3129 41.56 L 36.3129 42.128 L 33.4569 42.128 C 33.4675 42.56 33.5689 42.8933 33.7609 43.128 C 33.9529 43.3627 34.2382 43.48 34.6169 43.48 C 34.9529 43.48 35.2009 43.3813 35.3609 43.184 C 35.5209 42.9867 35.6009 42.752 35.6009 42.48 L 36.3129 42.48 C 36.3129 42.8 36.2382 43.08 36.0889 43.32 C 35.9449 43.56 35.7422 43.7467 35.4809 43.88 C 35.2249 44.0133 34.9315 44.08 34.6009 44.08 L 34.5689 44.08 C 33.9929 44.08 33.5369 43.896 33.2009 43.528 C 32.8702 43.1547 32.7049 42.6587 32.7049 42.04 L 32.7049 41.88 C 32.7049 41.4747 32.7795 41.1173 32.9289 40.808 C 33.0782 40.4987 33.2915 40.2587 33.5689 40.088 C 33.8462 39.9173 34.1715 39.832 34.5449 39.832 L 34.6009 39.832 Z M 34.5609 40.432 C 34.2569 40.432 34.0089 40.5253 33.8169 40.712 C 33.6302 40.8987 33.5155 41.176 33.4729 41.544 L 35.5689 41.544 L 35.5689 41.448 C 35.5689 41.144 35.4755 40.8987 35.2889 40.712 C 35.1075 40.5253 34.8649 40.432 34.5609 40.432 Z M 40.7422 44 L 40.1822 44 C 40.1449 43.8293 40.1102 43.6427 40.0782 43.44 C 39.7742 43.8667 39.3529 44.08 38.8142 44.08 C 38.3022 44.08 37.8969 43.8907 37.5982 43.512 C 37.3049 43.1333 37.1582 42.6133 37.1582 41.952 L 37.1582 41.864 C 37.1582 41.24 37.3022 40.7467 37.5902 40.384 C 37.8835 40.016 38.2915 39.832 38.8142 39.832 C 39.3209 39.832 39.7129 40.032 39.9902 40.432 L 39.9902 38.24 L 40.7422 38.24 L 40.7422 44 Z M 38.9502 40.432 C 38.5929 40.432 38.3289 40.5573 38.1582 40.808 C 37.9929 41.0533 37.9102 41.4373 37.9102 41.96 C 37.9102 42.4827 37.9955 42.8667 38.1662 43.112 C 38.3369 43.3573 38.5982 43.48 38.9502 43.48 C 39.6489 43.48 39.9982 42.9733 39.9982 41.96 C 39.9982 41.4373 39.9102 41.0533 39.7342 40.808 C 39.5582 40.5573 39.2969 40.432 38.9502 40.432 Z" stroke-linecap="round" />
</g>
		<g transform="matrix(1 0 0 1 -0.08 -18.54)"  >
<path style="stroke: none; stroke-width: 1; stroke-dasharray: none; stroke-linecap: butt; stroke-dashoffset: 0; stroke-linejoin: miter; stroke-miterlimit: 4; fill: rgb(156,104,29); fill-rule: evenodd; opacity: 1;" vector-effect="non-scaling-stroke"  transform=" translate(-20.5, -3.5)" d="M 15.0625 2.625 C 15.0625 1.92881 15.3489 1.26113 15.8588 0.768845 C 16.3687 0.276562 17.0602 0 17.7812 0 L 23.2188 0 C 23.9398 0 24.6313 0.276562 25.1412 0.768845 C 25.6511 1.26113 25.9375 1.92881 25.9375 2.625 L 25.9375 4.375 C 25.9375 5.07119 25.6511 5.73887 25.1412 6.23116 C 24.6313 6.72344 23.9398 7 23.2188 7 L 17.7812 7 C 17.0602 7 16.3687 6.72344 15.8588 6.23116 C 15.3489 5.73887 15.0625 5.07119 15.0625 4.375 L 15.0625 2.625 Z M 24.125 2.625 C 24.125 2.39294 24.0295 2.17038 23.8596 2.00628 C 23.6896 1.84219 23.4591 1.75 23.2188 1.75 L 17.7812 1.75 C 17.5409 1.75 17.3104 1.84219 17.1404 2.00628 C 16.9705 2.17038 16.875 2.39294 16.875 2.625 L 16.875 4.375 C 16.875 4.60706 16.9705 4.82962 17.1404 4.99372 C 17.3104 5.15781 17.5409 5.25 17.7812 5.25 L 23.2188 5.25 C 23.4591 5.25 23.6896 5.15781 23.8596 4.99372 C 24.0295 4.82962 24.125 4.60706 24.125 4.375 L 24.125 2.625 Z" stroke-linecap="round" />
</g>
		<g transform="matrix(1 0 0 1 -0.08 -6.73)"  >
<path style="stroke: none; stroke-width: 1; stroke-dasharray: none; stroke-linecap: butt; stroke-dashoffset: 0; stroke-linejoin: miter; stroke-miterlimit: 4; fill: rgb(156,104,29); fill-rule: nonzero; opacity: 1;" vector-effect="non-scaling-stroke"  transform=" translate(-20.5, -15.31)" d="M 11.4375 2.625 L 13.25 2.625 L 13.25 4.375 L 11.4375 4.375 C 10.9568 4.375 10.4958 4.55937 10.1559 4.88756 C 9.81596 5.21575 9.625 5.66087 9.625 6.125 L 9.625 24.5 C 9.625 24.9641 9.81596 25.4092 10.1559 25.7374 C 10.4958 26.0656 10.9568 26.25 11.4375 26.25 L 29.5625 26.25 C 30.0432 26.25 30.5042 26.0656 30.8441 25.7374 C 31.184 25.4092 31.375 24.9641 31.375 24.5 L 31.375 6.125 C 31.375 5.66087 31.184 5.21575 30.8441 4.88756 C 30.5042 4.55937 30.0432 4.375 29.5625 4.375 L 27.75 4.375 L 27.75 2.625 L 29.5625 2.625 C 30.5239 2.625 31.4459 2.99375 32.1258 3.65013 C 32.8056 4.3065 33.1875 5.19674 33.1875 6.125 L 33.1875 24.5 C 33.1875 25.4283 32.8056 26.3185 32.1258 26.9749 C 31.4459 27.6313 30.5239 28 29.5625 28 L 11.4375 28 C 10.4761 28 9.55406 27.6313 8.87424 26.9749 C 8.19442 26.3185 7.8125 25.4283 7.8125 24.5 L 7.8125 6.125 C 7.8125 5.19674 8.19442 4.3065 8.87424 3.65013 C 9.55406 2.99375 10.4761 2.625 11.4375 2.625 Z" stroke-linecap="round" />
</g>
		<g transform="matrix(1 0 0 1 -0.08 -5.85)"  >
<path style="stroke: none; stroke-width: 1; stroke-dasharray: none; stroke-linecap: butt; stroke-dashoffset: 0; stroke-linejoin: miter; stroke-miterlimit: 4; fill: rgb(156,104,29); fill-rule: nonzero; opacity: 1;" vector-effect="non-scaling-stroke"  transform=" translate(-20.5, -16.19)" d="M 20.5 12.2184 C 23.516 9.29067 31.0578 14.4129 20.5 20.9999 C 9.94218 14.4129 17.484 9.29242 20.5 12.2184 Z" stroke-linecap="round" />
</g>
</g>
</g>
<g transform="matrix(1 0 0 1 540 540)"  >
<g style="" vector-effect="non-scaling-stroke"   >
		<g transform="matrix(1 0 0 1 0 19.12)"  >
<path style="stroke: none; stroke-width: 1; stroke-dasharray: none; stroke-linecap: butt; stroke-dashoffset: 0; stroke-linejoin: miter; stroke-miterlimit: 4; fill: rgb(175,83,48); fill-rule: nonzero; opacity: 1;" vector-effect="non-scaling-stroke"  transform=" translate(-20.58, -41.16)" d="M 2.512 38.432 C 3.11467 38.432 3.58667 38.5653 3.928 38.832 C 4.27467 39.0987 4.448 39.4773 4.448 39.968 L 4.448 40.064 L 3.664 40.064 L 3.664 39.944 C 3.664 39.688 3.56 39.4907 3.352 39.352 C 3.144 39.2133 2.86933 39.144 2.528 39.144 C 2.14933 39.144 1.85333 39.208 1.64 39.336 C 1.432 39.4587 1.328 39.6373 1.328 39.872 C 1.328 40.048 1.38667 40.192 1.504 40.304 C 1.62667 40.416 1.776 40.504 1.952 40.568 C 2.13333 40.632 2.38133 40.704 2.696 40.784 C 3.10133 40.8907 3.42933 40.9947 3.68 41.096 C 3.93067 41.1973 4.144 41.3493 4.32 41.552 C 4.50133 41.7547 4.592 42.024 4.592 42.36 C 4.592 42.9573 4.408 43.3947 4.04 43.672 C 3.67733 43.944 3.16533 44.08 2.504 44.08 C 1.84267 44.08 1.328 43.9413 0.96 43.664 C 0.597333 43.3813 0.416 42.9733 0.416 42.44 L 0.424 42.28 L 1.208 42.28 L 1.2 42.448 C 1.2 42.7573 1.31467 42.9893 1.544 43.144 C 1.77867 43.2933 2.10133 43.368 2.512 43.368 C 2.912 43.368 3.22667 43.296 3.456 43.152 C 3.69067 43.0027 3.808 42.8 3.808 42.544 C 3.808 42.3413 3.744 42.1787 3.616 42.056 C 3.49333 41.928 3.336 41.8293 3.144 41.76 C 2.95733 41.6907 2.70133 41.6133 2.376 41.528 C 1.976 41.4213 1.656 41.32 1.416 41.224 C 1.176 41.128 0.970667 40.9813 0.8 40.784 C 0.629333 40.5813 0.544 40.3173 0.544 39.992 C 0.544 39.464 0.722667 39.072 1.08 38.816 C 1.43733 38.56 1.91467 38.432 2.512 38.432 Z M 6.43163 40.424 C 6.76763 40.0293 7.18896 39.832 7.69563 39.832 C 8.14363 39.832 8.49563 39.952 8.75163 40.192 C 9.00763 40.432 9.13563 40.784 9.13563 41.248 L 9.13563 44 L 8.38363 44 L 8.38363 41.384 C 8.38363 40.7493 8.09563 40.432 7.51963 40.432 C 7.32763 40.432 7.14896 40.4827 6.98363 40.584 C 6.81829 40.6853 6.68496 40.824 6.58363 41 C 6.48229 41.1707 6.43163 41.36 6.43163 41.568 L 6.43163 44 L 5.67963 44 L 5.67963 38.24 L 6.43163 38.24 L 6.43163 40.424 Z M 12.0538 39.832 C 12.6245 39.832 13.0805 40.008 13.4218 40.36 C 13.7631 40.712 13.9338 41.1947 13.9338 41.808 L 13.9338 42.104 C 13.9338 42.7173 13.7658 43.2 13.4298 43.552 C 13.0938 43.904 12.6351 44.08 12.0538 44.08 C 11.4725 44.08 11.0138 43.904 10.6778 43.552 C 10.3418 43.2 10.1738 42.7173 10.1738 42.104 L 10.1738 41.808 C 10.1738 41.1947 10.3445 40.712 10.6858 40.36 C 11.0271 40.008 11.4831 39.832 12.0538 39.832 Z M 12.0538 40.432 C 11.6965 40.432 11.4191 40.5547 11.2218 40.8 C 11.0245 41.0453 10.9258 41.4053 10.9258 41.88 L 10.9258 42.032 C 10.9258 42.496 11.0218 42.8533 11.2138 43.104 C 11.4111 43.3547 11.6911 43.48 12.0538 43.48 C 12.4058 43.48 12.6805 43.3573 12.8778 43.112 C 13.0805 42.8613 13.1818 42.5013 13.1818 42.032 L 13.1818 41.88 C 13.1818 41.416 13.0831 41.0587 12.8858 40.808 C 12.6938 40.5573 12.4165 40.432 12.0538 40.432 Z M 16.8556 39.832 C 17.2342 39.832 17.5302 39.9547 17.7436 40.2 C 17.9569 40.44 18.0636 40.744 18.0636 41.112 L 18.0396 41.416 L 17.3756 41.416 L 17.3756 41.24 C 17.3756 41.08 17.3356 40.9387 17.2556 40.816 C 17.1756 40.6933 17.0742 40.6 16.9516 40.536 C 16.8289 40.4667 16.7062 40.432 16.5836 40.432 C 16.3276 40.432 16.1276 40.5333 15.9836 40.736 C 15.8396 40.9387 15.7676 41.2133 15.7676 41.56 L 15.7676 44 L 15.0156 44 L 15.0156 39.912 L 15.5516 39.912 L 15.6636 40.52 C 15.6956 40.4133 15.7676 40.3067 15.8796 40.2 C 15.9916 40.0933 16.1302 40.0053 16.2956 39.936 C 16.4662 39.8667 16.6529 39.832 16.8556 39.832 Z M 19.8174 39.912 L 20.7694 39.912 L 20.7694 40.512 L 19.8174 40.512 L 19.8174 42.952 C 19.8174 43.144 19.8548 43.2827 19.9294 43.368 C 20.0041 43.4533 20.1188 43.496 20.2734 43.496 C 20.4121 43.496 20.5774 43.456 20.7694 43.376 L 20.7694 43.936 C 20.5774 44.032 20.3294 44.08 20.0254 44.08 C 19.7108 44.08 19.4708 43.9867 19.3054 43.8 C 19.1454 43.6133 19.0654 43.3173 19.0654 42.912 L 19.0654 40.512 L 18.6174 40.512 L 18.6174 39.912 L 19.0894 39.912 L 19.3454 38.608 L 19.8174 38.608 L 19.8174 39.912 Z M 22.4871 38.24 L 22.4871 44 L 21.7351 44 L 21.7351 38.24 L 22.4871 38.24 Z M 24.6117 38.24 L 24.6117 38.936 L 23.8277 38.936 L 23.8277 38.24 L 24.6117 38.24 Z M 24.5957 39.912 L 24.5957 44 L 23.8437 44 L 23.8437 39.912 L 24.5957 39.912 Z M 27.4818 39.832 C 27.7858 39.832 28.0551 39.88 28.2898 39.976 C 28.5298 40.072 28.7138 40.2053 28.8418 40.376 C 28.9751 40.5467 29.0418 40.736 29.0418 40.944 L 29.0338 41.088 L 28.2898 41.088 L 28.2898 41.016 C 28.2898 40.6267 27.9885 40.432 27.3858 40.432 C 26.7885 40.432 26.4898 40.6107 26.4898 40.968 C 26.4898 41.1333 26.5751 41.256 26.7458 41.336 C 26.9165 41.4107 27.1778 41.4827 27.5298 41.552 C 27.8658 41.6213 28.1405 41.6933 28.3538 41.768 C 28.5725 41.8427 28.7565 41.96 28.9058 42.12 C 29.0605 42.28 29.1378 42.496 29.1378 42.768 C 29.1378 43.2053 28.9885 43.5333 28.6898 43.752 C 28.3911 43.9707 27.9618 44.08 27.4018 44.08 L 27.2818 44.08 C 26.9458 44.08 26.6525 44.0293 26.4018 43.928 C 26.1511 43.8213 25.9565 43.68 25.8178 43.504 C 25.6845 43.3227 25.6205 43.12 25.6258 42.896 L 25.6258 42.72 L 26.3698 42.72 L 26.3698 42.8 C 26.3698 43.2533 26.7511 43.48 27.5138 43.48 C 27.7378 43.48 27.9378 43.4293 28.1138 43.328 C 28.2951 43.2267 28.3858 43.088 28.3858 42.912 C 28.3858 42.7627 28.3351 42.6453 28.2338 42.56 C 28.1378 42.4747 28.0178 42.4107 27.8738 42.368 C 27.7298 42.3253 27.5298 42.2827 27.2738 42.24 C 26.9431 42.176 26.6765 42.112 26.4738 42.048 C 26.2711 41.9787 26.0978 41.864 25.9538 41.704 C 25.8098 41.544 25.7378 41.3253 25.7378 41.048 C 25.7378 40.6693 25.8871 40.3733 26.1858 40.16 C 26.4845 39.9413 26.8925 39.832 27.4098 39.832 L 27.4818 39.832 Z M 31.0753 39.912 L 32.0273 39.912 L 32.0273 40.512 L 31.0753 40.512 L 31.0753 42.952 C 31.0753 43.144 31.1126 43.2827 31.1873 43.368 C 31.2619 43.4533 31.3766 43.496 31.5312 43.496 C 31.6699 43.496 31.8353 43.456 32.0273 43.376 L 32.0273 43.936 C 31.8353 44.032 31.5873 44.08 31.2833 44.08 C 30.9686 44.08 30.7286 43.9867 30.5633 43.8 C 30.4033 43.6133 30.3233 43.3173 30.3233 42.912 L 30.3233 40.512 L 29.8753 40.512 L 29.8753 39.912 L 30.3473 39.912 L 30.6033 38.608 L 31.0753 38.608 L 31.0753 39.912 Z M 34.6009 39.832 C 34.9369 39.832 35.2329 39.904 35.4889 40.048 C 35.7502 40.1867 35.9529 40.3867 36.0969 40.648 C 36.2409 40.9093 36.3129 41.2133 36.3129 41.56 L 36.3129 42.128 L 33.4569 42.128 C 33.4675 42.56 33.5689 42.8933 33.7609 43.128 C 33.9529 43.3627 34.2382 43.48 34.6169 43.48 C 34.9529 43.48 35.2009 43.3813 35.3609 43.184 C 35.5209 42.9867 35.6009 42.752 35.6009 42.48 L 36.3129 42.48 C 36.3129 42.8 36.2382 43.08 36.0889 43.32 C 35.9449 43.56 35.7422 43.7467 35.4809 43.88 C 35.2249 44.0133 34.9315 44.08 34.6009 44.08 L 34.5689 44.08 C 33.9929 44.08 33.5369 43.896 33.2009 43.528 C 32.8702 43.1547 32.7049 42.6587 32.7049 42.04 L 32.7049 41.88 C 32.7049 41.4747 32.7795 41.1173 32.9289 40.808 C 33.0782 40.4987 33.2915 40.2587 33.5689 40.088 C 33.8462 39.9173 34.1715 39.832 34.5449 39.832 L 34.6009 39.832 Z M 34.5609 40.432 C 34.2569 40.432 34.0089 40.5253 33.8169 40.712 C 33.6302 40.8987 33.5155 41.176 33.4729 41.544 L 35.5689 41.544 L 35.5689 41.448 C 35.5689 41.144 35.4755 40.8987 35.2889 40.712 C 35.1075 40.5253 34.8649 40.432 34.5609 40.432 Z M 40.7422 44 L 40.1822 44 C 40.1449 43.8293 40.1102 43.6427 40.0782 43.44 C 39.7742 43.8667 39.3529 44.08 38.8142 44.08 C 38.3022 44.08 37.8969 43.8907 37.5982 43.512 C 37.3049 43.1333 37.1582 42.6133 37.1582 41.952 L 37.1582 41.864 C 37.1582 41.24 37.3022 40.7467 37.5902 40.384 C 37.8835 40.016 38.2915 39.832 38.8142 39.832 C 39.3209 39.832 39.7129 40.032 39.9902 40.432 L 39.9902 38.24 L 40.7422 38.24 L 40.7422 44 Z M 38.9502 40.432 C 38.5929 40.432 38.3289 40.5573 38.1582 40.808 C 37.9929 41.0533 37.9102 41.4373 37.9102 41.96 C 37.9102 42.4827 37.9955 42.8667 38.1662 43.112 C 38.3369 43.3573 38.5982 43.48 38.9502 43.48 C 39.6489 43.48 39.9982 42.9733 39.9982 41.96 C 39.9982 41.4373 39.9102 41.0533 39.7342 40.808 C 39.5582 40.5573 39.2969 40.432 38.9502 40.432 Z" stroke-linecap="round" />
</g>
		<g transform="matrix(1 0 0 1 -0.08 -18.54)"  >
<path style="stroke: none; stroke-width: 1; stroke-dasharray: none; stroke-linecap: butt; stroke-dashoffset: 0; stroke-linejoin: miter; stroke-miterlimit: 4; fill: rgb(175,83,48); fill-rule: evenodd; opacity: 1;" vector-effect="non-scaling-stroke"  transform=" translate(-20.5, -3.5)" d="M 15.0625 2.625 C 15.0625 1.92881 15.3489 1.26113 15.8588 0.768845 C 16.3687 0.276562 17.0602 0 17.7812 0 L 23.2188 0 C 23.9398 0 24.6313 0.276562 25.1412 0.768845 C 25.6511 1.26113 25.9375 1.92881 25.9375 2.625 L 25.9375 4.375 C 25.9375 5.07119 25.6511 5.73887 25.1412 6.23116 C 24.6313 6.72344 23.9398 7 23.2188 7 L 17.7812 7 C 17.0602 7 16.3687 6.72344 15.8588 6.23116 C 15.3489 5.73887 15.0625 5.07119 15.0625 4.375 L 15.0625 2.625 Z M 24.125 2.625 C 24.125 2.39294 24.0295 2.17038 23.8596 2.00628 C 23.6896 1.84219 23.4591 1.75 23.2188 1.75 L 17.7812 1.75 C 17.5409 1.75 17.3104 1.84219 17.1404 2.00628 C 16.9705 2.17038 16.875 2.39294 16.875 2.625 L 16.875 4.375 C 16.875 4.60706 16.9705 4.82962 17.1404 4.99372 C 17.3104 5.15781 17.5409 5.25 17.7812 5.25 L 23.2188 5.25 C 23.4591 5.25 23.6896 5.15781 23.8596 4.99372 C 24.0295 4.82962 24.125 4.60706 24.125 4.375 L 24.125 2.625 Z" stroke-linecap="round" />
</g>
		<g transform="matrix(1 0 0 1 -0.08 -6.73)"  >
<path style="stroke: none; stroke-width: 1; stroke-dasharray: none; stroke-linecap: butt; stroke-dashoffset: 0; stroke-linejoin: miter; stroke-miterlimit: 4; fill: rgb(175,83,48); fill-rule: nonzero; opacity: 1;" vector-effect="non-scaling-stroke"  transform=" translate(-20.5, -15.31)" d="M 11.4375 2.625 L 13.25 2.625 L 13.25 4.375 L 11.4375 4.375 C 10.9568 4.375 10.4958 4.55937 10.1559 4.88756 C 9.81596 5.21575 9.625 5.66087 9.625 6.125 L 9.625 24.5 C 9.625 24.9641 9.81596 25.4092 10.1559 25.7374 C 10.4958 26.0656 10.9568 26.25 11.4375 26.25 L 29.5625 26.25 C 30.0432 26.25 30.5042 26.0656 30.8441 25.7374 C 31.184 25.4092 31.375 24.9641 31.375 24.5 L 31.375 6.125 C 31.375 5.66087 31.184 5.21575 30.8441 4.88756 C 30.5042 4.55937 30.0432 4.375 29.5625 4.375 L 27.75 4.375 L 27.75 2.625 L 29.5625 2.625 C 30.5239 2.625 31.4459 2.99375 32.1258 3.65013 C 32.8056 4.3065 33.1875 5.19674 33.1875 6.125 L 33.1875 24.5 C 33.1875 25.4283 32.8056 26.3185 32.1258 26.9749 C 31.4459 27.6313 30.5239 28 29.5625 28 L 11.4375 28 C 10.4761 28 9.55406 27.6313 8.87424 26.9749 C 8.19442 26.3185 7.8125 25.4283 7.8125 24.5 L 7.8125 6.125 C 7.8125 5.19674 8.19442 4.3065 8.87424 3.65013 C 9.55406 2.99375 10.4761 2.625 11.4375 2.625 Z" stroke-linecap="round" />
</g>
		<g transform="matrix(1 0 0 1 -0.08 -5.85)"  >
<path style="stroke: none; stroke-width: 1; stroke-dasharray: none; stroke-linecap: butt; stroke-dashoffset: 0; stroke-linejoin: miter; stroke-miterlimit: 4; fill: rgb(175,83,48); fill-rule: nonzero; opacity: 1;" vector-effect="non-scaling-stroke"  transform=" translate(-20.5, -16.19)" d="M 20.5 12.2184 C 23.516 9.29067 31.0578 14.4129 20.5 20.9999 C 9.94218 14.4129 17.484 9.29242 20.5 12.2184 Z" stroke-linecap="round" />
</g>
</g>
</g>
</svg>